# xmcd CD database file
#
# Track frame offsets:
#	182
#	14007
#	28072
#	45967
#	76970
#	91275
#	105540
#	121917
#
# Disc length: 1966 seconds
#
# Revision: 0
# Processed by: cddbd v1.5.2PL0 Copyright (c) Steve Scherf et al.
# Submitted via: CDex 1.70beta2
#
DISCID=5607ac08
DTITLE=Roberto y su Nuevo Montuno - El Nuevo Montuno Llego
DYEAR=1900
DGENRE=Salsa
TTITLE0=El Nuevo Montuno Llego
TTITLE1=Llame a chango
TTITLE2=Balanceate
TTITLE3=Dichoso
TTITLE4=Monina y Ramon
TTITLE5=Triste Arabal
TTITLE6=Me Queda un Guaguanco
TTITLE7=Oye tu Son Boriquen
EXTD=
EXTT0=
EXTT1=
EXTT2=
EXTT3=
EXTT4=
EXTT5=
EXTT6=
EXTT7=
PLAYORDER=
